HIERARCHY
ROOT Hips
{
	OFFSET -0.001795 -0.223333 0.028219
	CHANNELS 6 Xposition Yposition Zposition Zrotation Yrotation Xrotation 
	JOINT LeftUpLeg
	{
		OFFSET 0.069520 -0.091406 -0.006815
		CHANNELS 3 Zrotation Yrotation Xrotation
		JOINT LeftLeg
		{
			OFFSET 0.034277 -0.375199 -0.004496
			CHANNELS 3 Zrotation Yrotation Xrotation
			JOINT LeftFoot
			{
				OFFSET -0.013596 -0.397961 -0.043693
				CHANNELS 3 Zrotation Yrotation Xrotation
				JOINT LeftToe
				{
					OFFSET 0.026358 -0.055791 0.119288
					CHANNELS 3 Zrotation Yrotation Xrotation
					End Site
					{
						OFFSET 0.000000 0.000000 0.000000
					}
				}
			}
		}
	}
	JOINT RightUpLeg
	{
		OFFSET -0.067670 -0.090522 -0.004320
		CHANNELS 3 Zrotation Yrotation Xrotation
		JOINT RightLeg
		{
			OFFSET -0.038290 -0.382569 -0.008850
			CHANNELS 3 Zrotation Yrotation Xrotation
			JOINT RightFoot
			{
				OFFSET 0.015774 -0.398415 -0.042312
				CHANNELS 3 Zrotation Yrotation Xrotation
				JOINT RightToe
				{
					OFFSET -0.025372 -0.048144 0.123348
					CHANNELS 3 Zrotation Yrotation Xrotation
					End Site
					{
						OFFSET 0.000000 0.000000 0.000000
					}
				}
			}
		}
	}
	JOINT Spine
	{
		OFFSET -0.002533 0.108963 -0.026696
		CHANNELS 3 Zrotation Yrotation Xrotation
		JOINT Spine1
		{
			OFFSET 0.005487 0.135180 0.001092
			CHANNELS 3 Zrotation Yrotation Xrotation
			JOINT Spine2
			{
				OFFSET 0.001457 0.052922 0.025425
				CHANNELS 3 Zrotation Yrotation Xrotation
				JOINT Neck
				{
					OFFSET -0.002778 0.213870 -0.042857
					CHANNELS 3 Zrotation Yrotation Xrotation
					JOINT Head
					{
						OFFSET 0.005152 0.064970 0.051349
						CHANNELS 3 Zrotation Yrotation Xrotation
						End Site
						{
							OFFSET 0.000000 0.000000 0.000000
						}
					}
				}
				JOINT LeftShoulder
				{
					OFFSET 0.078845 0.121749 -0.034090
					CHANNELS 3 Zrotation Yrotation Xrotation
					JOINT LeftArm
					{
						OFFSET 0.090977 0.030469 -0.008868
						CHANNELS 3 Zrotation Yrotation Xrotation
						JOINT LeftForeArm
						{
							OFFSET 0.259612 -0.012772 -0.027456
							CHANNELS 3 Zrotation Yrotation Xrotation
							JOINT LeftHand
							{
								OFFSET 0.249234 0.008986 -0.001171
								CHANNELS 3 Zrotation Yrotation Xrotation
								End Site
								{
									OFFSET 0.000000 0.000000 0.000000
								}
							}
						}
					}
				}
				JOINT RightShoulder
				{
					OFFSET -0.081759 0.118833 -0.038615
					CHANNELS 3 Zrotation Yrotation Xrotation
					JOINT RightArm
					{
						OFFSET -0.096012 0.032551 -0.009143
						CHANNELS 3 Zrotation Yrotation Xrotation
						JOINT RightForeArm
						{
							OFFSET -0.253742 -0.013329 -0.021401
							CHANNELS 3 Zrotation Yrotation Xrotation
							JOINT RightHand
							{
								OFFSET -0.255298 0.007772 -0.005559
								CHANNELS 3 Zrotation Yrotation Xrotation
								End Site
								{
									OFFSET 0.000000 0.000000 0.000000
								}
							}
						}
					}
				}
			}
		}
	}
}
MOTION
Frames: 9
Frame Time: 0.050000
0.000000 0.936428 0.000000 2.644511 22.648314 9.085317 4.962082 -0.597989 -5.367922 -2.964530 0.138337 0.604260 4.715718 11.138108 4.524064 0.000000 0.000000 0.000000 -6.970353 0.041738 -15.994390 0.931195 -0.130107 5.522183 0.114821 -0.107620 2.548272 0.000000 0.000000 0.000000 6.924907 -0.790570 4.201848 3.275756 -1.283008 -2.516789 -6.002305 1.990941 9.996716 16.387860 -6.921337 -18.909747 0.000000 0.000000 0.000000 -15.473674 -10.740566 0.591813 -42.449570 -7.675048 -1.925703 -78.904718 -73.756906 61.227692 0.000000 0.000000 0.000000 17.018349 -3.788078 -0.258064 54.630074 2.187106 -4.792150 1.651321 41.347605 4.191755 0.000000 0.000000 0.000000 
0.001627 0.936442 -0.005085 2.186410 20.760833 10.470116 4.820673 -0.614822 -5.731377 -2.679140 0.164615 -2.312967 6.125907 14.340584 7.111517 0.000000 0.000000 0.000000 -7.277772 0.021371 -18.736588 0.553397 -0.036027 6.368480 2.063595 4.130684 3.640930 0.000000 0.000000 0.000000 8.084058 -1.039234 4.886865 3.113081 -1.257286 -2.204498 -5.462629 0.859009 10.982251 18.082995 -8.383781 -18.647304 0.000000 0.000000 0.000000 -16.315490 -12.312628 1.848530 -42.712120 -10.725234 -1.102490 -86.539949 -76.564175 72.354235 0.000000 0.000000 0.000000 14.131529 -4.331206 -1.160552 56.793601 0.608162 -5.322672 4.516237 42.546145 5.221951 0.000000 0.000000 0.000000 
0.003219 0.936429 -0.011659 1.942636 17.258057 11.045376 4.613538 -0.633999 -6.438183 -3.177446 0.209494 -1.664357 6.919890 15.643152 7.367627 0.000000 0.000000 0.000000 -5.945289 0.415558 -20.795430 -0.525978 0.217023 6.916618 3.421774 6.975535 4.014140 0.000000 0.000000 0.000000 8.036414 -1.483781 8.297203 4.390595 -1.660414 -3.712226 -5.795607 0.674729 12.116734 17.173651 -7.803624 -19.322693 0.000000 0.000000 0.000000 -15.530356 -13.201040 2.894315 -41.681962 -17.263402 0.804213 -62.324020 -78.087797 52.470163 0.000000 0.000000 0.000000 13.176783 -2.959090 -0.764768 57.053319 0.444816 -5.475580 5.984728 45.468977 6.040574 0.000000 0.000000 0.000000 
0.005018 0.935960 -0.019056 2.363553 14.660790 12.962258 3.544105 -0.758494 -8.518150 -2.630246 0.200145 -1.553088 9.023597 19.130381 8.440707 0.000000 0.000000 0.000000 -6.565320 0.428801 -23.555115 -0.241611 0.179937 6.250762 5.504569 10.473786 6.270847 0.000000 0.000000 0.000000 8.910328 -1.972984 10.460840 4.115148 -1.563176 -3.623824 -5.157736 -1.959980 12.672222 15.919425 -6.796666 -21.716984 0.000000 0.000000 0.000000 -16.400045 -16.105999 5.502321 -40.128555 -22.089109 1.982601 -33.131506 -76.792907 28.771504 0.000000 0.000000 0.000000 11.759055 -2.131878 -1.018908 56.499406 2.412016 -4.649136 8.620485 46.736682 6.742562 0.000000 0.000000 0.000000 
0.007001 0.936400 -0.027192 2.835103 11.939925 14.220153 2.033118 -0.848522 -9.599780 -2.928010 0.238372 -2.110363 10.107445 20.938185 9.856292 0.000000 0.000000 0.000000 -6.755444 0.550333 -25.537578 -0.896570 0.314911 6.152770 7.166634 13.167652 7.636482 0.000000 0.000000 0.000000 8.606784 -2.502386 14.389919 5.931950 -2.262733 -4.459740 -6.143730 -3.203159 13.560316 14.691195 -6.109450 -22.786689 0.000000 0.000000 0.000000 -14.561849 -20.687827 8.568269 -38.160773 -29.975958 3.946423 -3.574466 -68.808037 5.424690 0.000000 0.000000 0.000000 11.589738 -0.751372 -0.727139 57.059805 3.928586 -4.134552 9.502862 49.342492 7.199833 0.000000 0.000000 0.000000 
0.009204 0.935427 -0.035252 2.932979 8.937333 15.717692 0.954165 -1.075476 -11.853011 -2.068620 0.195545 -1.494520 12.099019 23.937961 11.029730 0.000000 0.000000 0.000000 -6.674361 0.798719 -28.158254 -1.793388 0.477602 5.965785 8.841038 15.219442 9.733992 0.000000 0.000000 0.000000 8.791225 -3.003395 17.578169 5.924012 -2.230234 -4.760797 -6.469800 -6.339611 14.234828 12.935933 -5.536690 -23.431607 0.000000 0.000000 0.000000 -12.954285 -23.991141 11.338060 -34.511603 -36.569168 5.006953 9.562732 -58.159639 -1.868547 0.000000 0.000000 0.000000 13.326812 0.974336 -0.843843 55.854998 6.798802 -2.955972 10.597613 49.925850 6.894827 0.000000 0.000000 0.000000 
0.011659 0.933926 -0.042953 3.142807 5.819353 17.316788 0.486064 -1.272268 -13.817325 -2.635335 0.256409 -1.921487 13.155049 25.401773 13.458457 0.000000 0.000000 0.000000 -6.309079 1.176629 -30.958376 -3.060742 0.701956 6.137561 10.426491 17.682219 10.712714 0.000000 0.000000 0.000000 8.226818 -3.294569 21.016494 7.054086 -2.681277 -4.895826 -7.452046 -8.114294 14.098901 11.486331 -5.113745 -23.250520 0.000000 0.000000 0.000000 -9.451715 -28.095577 13.401575 -30.340781 -43.246431 5.938728 17.834892 -43.916072 -4.519509 0.000000 0.000000 0.000000 15.642515 3.766270 -0.424329 55.521160 8.554525 -2.026931 8.588159 50.383083 5.361583 0.000000 0.000000 0.000000 
0.014336 0.932249 -0.049672 3.179197 2.714351 18.948523 -0.010856 -1.477029 -15.921221 -2.406898 0.249122 -1.466659 14.182516 26.788232 13.880250 0.000000 0.000000 0.000000 -6.516640 1.503866 -33.571249 -2.874655 0.635283 5.431934 11.765734 18.852228 12.622646 0.000000 0.000000 0.000000 8.089503 -3.584083 24.257452 7.601521 -2.876510 -5.010564 -8.363191 -9.510475 14.122343 9.995118 -4.524492 -23.855304 0.000000 0.000000 0.000000 -7.336113 -30.991527 14.873731 -22.962427 -47.624287 4.756885 21.687029 -34.213315 -4.620464 0.000000 0.000000 0.000000 17.362142 5.755141 -0.414176 55.477145 10.474618 -0.958006 8.163742 51.579580 4.691777 0.000000 0.000000 0.000000 
0.017095 0.929225 -0.054509 3.505241 -0.070624 20.395711 -0.277201 -1.673543 -18.238960 -3.616634 0.365820 -0.162759 15.343691 28.332734 14.404249 0.000000 0.000000 0.000000 -6.906161 1.804858 -35.873879 -3.457835 0.704273 5.175575 12.689552 20.150630 13.257502 0.000000 0.000000 0.000000 7.848476 -3.698308 27.024651 7.827541 -2.948296 -5.019779 -9.208180 -10.478658 14.461406 9.353849 -4.177446 -25.553619 0.000000 0.000000 0.000000 -3.976903 -33.524732 15.367672 -15.426744 -51.029884 2.923610 24.316527 -25.885840 -4.087539 0.000000 0.000000 0.000000 17.605716 8.240111 0.186612 56.170244 11.882555 -0.214179 5.869404 52.894144 3.226855 0.000000 0.000000 0.000000 
